<svg fill="none" xmlns="http://www.w3.org/2000/svg" viewBox="30 30 144 144"> <g filter="url(#filter0_d_0_1908)"> <path fill-rule="evenodd" clip-rule="evenodd" d="M102 174C141.765 174 174 141.765 174 102C174 62.2355 141.765 30 102 30C62.2355 30 30 62.2355 30 102C30 141.765 62.2355 174 102 174Z" fill="white"/> </g> <path fill-rule="evenodd" clip-rule="evenodd" d="M122.736 112.059C123.993 112.054 125.01 112.356 125.973 112.827C126.385 113.029 126.634 112.967 126.953 112.652C129.32 110.318 130.945 107.577 131.576 104.292C131.836 102.942 131.913 101.581 131.484 100.244C131.032 98.8345 130.122 98.4148 128.733 98.9224C127.964 99.203 127.472 99.6199 127.203 100.486C125.816 104.957 122.819 108.081 118.714 110.174C115.047 112.044 111.125 112.856 107.016 112.694C104.903 112.611 102.827 112.259 100.82 111.564C100.7 111.522 100.581 111.478 100.464 111.428C100.438 111.417 100.423 111.38 100.305 111.233C101.093 111.233 101.788 111.244 102.483 111.231C106.427 111.159 110.321 110.73 114.076 109.455C117.615 108.254 120.729 106.379 122.843 103.212C125.422 99.3475 126.033 95.1098 124.736 90.6539C124.18 88.7431 123.415 86.8924 122.718 84.9374C124.334 84.0954 126.151 83.5317 128.179 83.2713C126.18 81.0217 123.942 79.3308 121.128 78.4317C123.761 77.5589 126.396 76.8093 129.325 77.1806C128.165 75.4552 126.63 74.3766 124.798 73.6878C122.972 73.0018 121.068 72.8168 119.009 72.9199C120.361 70.8949 122.334 70.121 124.462 69.5877C122.534 67.1661 118.017 67.4813 115.702 70.1707C115.375 68.828 116.303 66.9802 117.733 66.1773C119.254 65.3233 120.887 65.2257 122.547 65.5984C125.243 66.204 127.294 67.6455 128.355 70.2908C128.461 70.5572 128.522 70.8415 128.609 71.1378C127.834 71.3076 127.087 71.471 126.34 71.6348C129.203 73.057 131.724 74.7286 132.993 77.7687C133.371 78.6751 133.589 79.6184 133.529 80.5262C132.113 80.2837 130.732 80.0467 129.35 79.8098C129.316 79.87 129.282 79.9299 129.248 79.9901C130.683 81.8909 132.09 83.8041 132.094 86.3969C130.184 85.905 128.345 85.818 126.456 86.3477C127.612 89.6412 128.26 92.9702 128.038 96.4653C128.51 96.3848 128.912 96.2891 129.319 96.2513C131.1 96.0852 132.614 96.9171 133.45 98.5046C134.13 99.798 134.339 101.196 134.265 102.629C134.042 106.961 132.223 110.598 129.337 113.757C129.095 114.022 128.844 114.28 128.58 114.558C128.981 115.028 129.372 115.455 129.729 115.91C131.695 118.409 132.769 121.222 132.658 124.433C132.619 125.553 132.357 126.624 131.834 127.625C130.733 129.726 128.589 130.584 126.345 129.804C124.989 129.334 123.901 128.461 122.915 127.449C121.855 126.362 120.713 125.381 119.326 124.735C116.787 123.551 114.22 123.734 111.797 124.937C109.771 125.944 107.873 127.213 105.945 128.409C103.309 130.045 100.558 131.367 97.4251 131.693C92.8381 132.17 88.6257 131.246 85.0432 128.197C83.3302 126.739 82.0593 124.96 81.6682 122.682C81.5711 122.117 81.5569 121.518 81.6199 120.947C81.9208 118.21 84.2375 116.699 87.0599 117.379C87.5518 117.497 88.023 117.704 88.5135 117.83C89.4075 118.06 90.2997 118.336 91.2102 118.454C92.3817 118.605 93.036 117.928 93.002 116.759C92.9449 114.777 91.4882 113.515 89.349 113.589C88.0487 113.634 86.8589 114.061 85.7113 114.632C84.3135 115.328 82.865 115.832 81.2803 115.832C77.8777 115.834 75.7791 113.208 76.5259 109.893C76.7812 108.76 77.2653 107.732 77.8934 106.762C78.0061 106.588 78.128 106.367 78.1179 106.174C77.9762 103.479 78.1658 100.799 78.4538 98.1222C78.4612 98.0527 78.4547 97.9819 78.4547 97.761C75.5868 100.321 73.4642 103.241 72.1598 106.8C72.1004 106.716 72.047 106.672 72.0328 106.617C71.3099 103.867 70.7748 101.084 70.7366 98.2322C70.6906 94.8042 71.4765 91.6018 73.45 88.7449C73.5107 88.6575 73.5585 88.5608 73.6947 88.3276C71.9725 88.9446 70.3809 89.5151 68.7512 90.099C68.7383 89.9941 68.7107 89.9246 68.7254 89.8658C69.694 86.0145 71.4323 82.617 74.62 80.1194C76.2061 78.8767 77.9992 78.1124 80.0697 78.2757C81.9659 78.4253 83.4479 79.3501 84.7717 80.9495C80.2344 79.9984 76.6851 81.0056 74.5478 85.3607C76.9662 84.965 79.2705 84.9604 81.4506 86.4093C76.6855 88.4582 74.465 92.188 73.986 97.3128C77.0334 94.8411 80.3177 93.9484 84.1257 94.8609C82.0864 97.346 81.1013 100.136 81.1602 103.387C83.7213 102.048 86.3794 101.58 89.228 101.844C89.4539 103.98 90.3493 105.798 91.9041 107.287C91.8843 107.331 91.8645 107.375 91.8443 107.419C91.3266 107.278 90.7933 107.176 90.2936 106.986C89.0007 106.496 87.8775 105.728 86.9127 104.743C86.638 104.463 86.378 104.372 86.0007 104.457C83.1065 105.108 81.0351 106.787 79.7987 109.467C79.5622 109.98 79.4504 110.581 79.4154 111.149C79.3584 112.067 79.8691 112.605 80.7912 112.722C81.919 112.865 82.9524 112.528 83.9366 112.028C85.472 111.249 87.0525 110.617 88.7886 110.489C91.3473 110.3 93.5624 110.985 95.073 113.191C96.0424 114.607 96.4045 116.206 96.0995 117.916C95.6822 120.261 93.4952 121.897 91.011 121.607C89.7779 121.463 88.5742 121.069 87.3572 120.789C86.8294 120.667 86.3067 120.489 85.7725 120.44C85.0749 120.376 84.7322 120.629 84.7524 121.326C84.7726 122.031 84.8868 122.792 85.1877 123.419C86.1217 125.369 87.7322 126.676 89.661 127.555C93.6516 129.374 97.6846 129.316 101.625 127.454C103.456 126.589 105.164 125.455 106.904 124.403C108.711 123.309 110.527 122.238 112.591 121.696C117.043 120.527 120.834 121.742 124.082 124.905C124.719 125.526 125.337 126.178 126.04 126.717C128.011 128.225 129.642 127.57 130.052 125.105C130.478 122.55 129.768 120.228 128.35 118.13C127.002 116.135 125.352 114.389 123.553 112.788C123.324 112.584 123.095 112.38 122.736 112.059" fill="#4F008D"/> <path fill-rule="evenodd" clip-rule="evenodd" d="M92.9774 76.6366C91.1953 76.6748 88.6232 76.3219 86.0576 75.8893C85.6955 75.8286 85.5156 75.7048 85.4125 75.3096C84.7274 72.6745 85.6255 70.6122 87.6307 68.9203C91.8082 65.3967 96.6275 63.2696 102.015 62.5035C104.462 62.1552 106.961 62.0663 109.311 63.0979C112.025 64.2892 113.56 66.3607 113.709 69.3657C113.718 69.553 113.502 69.8019 113.327 69.9409C110.053 72.5351 106.407 74.399 102.373 75.495C99.5681 76.257 96.7103 76.6159 92.9774 76.6366ZM103.782 72.6317C104.512 72.6469 105.247 72.3082 105.913 71.8099C106.233 71.5706 106.294 71.2265 106.064 70.8938C105.854 70.5887 105.549 70.5064 105.205 70.6918C105.045 70.7778 104.892 70.8763 104.733 70.9637C103.525 71.6286 102.605 71.2467 102.243 69.9156C102.172 69.6565 102.138 69.3795 102.14 69.1113C102.148 68.0479 102.917 67.3439 103.862 67.6679C103.995 67.7134 104.18 67.7511 104.288 67.6932C104.534 67.562 104.85 67.4148 104.949 67.1907C105.091 66.8682 104.908 66.5742 104.54 66.4246C103.19 65.8771 101.615 66.4545 101.079 67.8087C100.855 68.3755 100.786 69.0478 100.818 69.6634C100.904 71.3314 102.189 72.6275 103.782 72.6317" fill="#4F4FFF"/> <path fill-rule="evenodd" clip-rule="evenodd" d="M114.497 74.3501C115.826 75.574 116.916 76.8702 117.547 78.5018C118.311 80.4789 117.85 82.371 116.268 83.7946C114.699 85.2062 112.814 86.0105 110.804 86.4946C105.617 87.7443 100.455 87.6044 95.3702 85.9585C92.5796 85.0553 90.0641 83.6565 88.2457 81.2685C87.6503 80.4868 87.2054 79.59 86.6914 78.7457L86.835 78.6173C86.9463 78.6481 87.0636 78.666 87.1686 78.7121C90.1129 79.9949 93.2183 80.5134 96.4018 80.5535C101.11 80.6119 105.656 79.7887 109.95 77.7904C111.694 76.9788 113.295 75.9615 114.497 74.3501" fill="#4F4FFF"/> <path fill-rule="evenodd" clip-rule="evenodd" d="M108.894 136.695C113.86 136.697 118.822 136.805 123.763 137.325C125.295 137.486 126.815 137.78 128.325 138.083C128.703 138.159 129.025 138.508 129.372 138.732C129.024 138.935 128.696 139.258 128.324 139.321C126.319 139.66 124.313 140.032 122.291 140.211C116.036 140.769 109.764 140.823 103.491 140.649C99.149 140.53 94.8054 140.359 90.5157 139.584C89.947 139.482 89.3911 139.293 88.8427 139.105C88.6752 139.047 88.5528 138.857 88.4102 138.727C88.5556 138.581 88.678 138.351 88.851 138.303C89.7574 138.051 90.6657 137.769 91.5933 137.635C97.0043 136.851 102.457 136.742 107.912 136.696C108.24 136.693 108.567 136.695 108.894 136.695" fill="#4F008D"/> <path fill-rule="evenodd" clip-rule="evenodd" d="M109.298 98.6601C109.384 97.1753 109.559 95.7204 110.187 94.3575C111.118 92.3389 112.758 91.7477 114.693 92.8464C117.017 94.1656 118.425 96.2486 119.222 98.7558C119.553 99.7957 119.734 100.871 119.589 101.976C119.43 103.195 118.896 104.213 117.852 104.865C116.027 106.005 114.1 106.59 112.05 105.446C110.493 104.577 109.841 103.085 109.552 101.423C109.394 100.515 109.378 99.5817 109.298 98.6601" fill="#4F008D"/> <path fill-rule="evenodd" clip-rule="evenodd" d="M102.912 94.3731C104.302 94.3777 105.398 95.4691 105.408 96.8591C105.418 98.2542 104.289 99.3967 102.898 99.4004C101.508 99.4041 100.377 98.2703 100.376 96.872C100.376 95.4645 101.488 94.3685 102.912 94.3731Z" fill="#4F008D"/> <path fill-rule="evenodd" clip-rule="evenodd" d="M122.408 90.8583C122.398 92.177 121.323 93.2224 119.991 93.2063C118.699 93.1911 117.649 92.1264 117.649 90.8325C117.65 89.5211 118.735 88.4399 120.044 88.4463C121.352 88.4528 122.417 89.5386 122.408 90.8583Z" fill="#4F008D"/> <path fill-rule="evenodd" clip-rule="evenodd" d="M103.782 72.6325C102.189 72.6283 100.903 71.3321 100.817 69.6642C100.786 69.0486 100.854 68.3763 101.079 67.8095C101.615 66.4553 103.189 65.8779 104.539 66.4254C104.907 66.5749 105.09 66.869 104.948 67.1915C104.85 67.4156 104.533 67.5628 104.288 67.694C104.18 67.752 103.994 67.7142 103.861 67.6687C102.917 67.3447 102.147 68.0487 102.14 69.1121C102.138 69.3803 102.172 69.6573 102.242 69.9164C102.605 71.2475 103.524 71.6294 104.733 70.9645C104.892 70.8771 105.045 70.7786 105.204 70.6926C105.548 70.5072 105.853 70.5895 106.064 70.8946C106.293 71.2273 106.233 71.5714 105.913 71.8107C105.246 72.309 104.512 72.6477 103.782 72.6325" fill="white"/> <defs> <filter id="filter0_d_0_1908" x="0" y="0" width="204" height="204" filterUnits="userSpaceOnUse" color-interpolation-filters="sRGB"> <feFlood flood-opacity="0" result="BackgroundImageFix"/> <feColorMatrix in="SourceAlpha" type="matrix" values="0 0 0 0 0 0 0 0 0 0 0 0 0 0 0 0 0 0 127 0" result="hardAlpha"/> <feOffset/> <feGaussianBlur stdDeviation="15"/> <feColorMatrix type="matrix" values="0 0 0 0 0 0 0 0 0 0 0 0 0 0 0 0 0 0 0.101961 0"/> <feBlend mode="normal" in2="BackgroundImageFix" result="effect1_dropShadow_0_1908"/> <feBlend mode="normal" in="SourceGraphic" in2="effect1_dropShadow_0_1908" result="shape"/> </filter> </defs> </svg>